<?xml version='1.0' encoding='utf-8'?>
<svg xmlns="http://www.w3.org/2000/svg" width="91.44mm" height="91.44mm" clip-rule="evenodd" fill-rule="evenodd" image-rendering="optimizeQuality" shape-rendering="geometricPrecision" text-rendering="geometricPrecision" version="1.1" viewBox="0 0 9144 9144"> <defs> <style type="text/css">.fil0 {fill:#F0F0F0} .fil1 {fill:#ffffff;fill-rule:nonzero}</style> </defs> <path class="fil1" d="m3014 2455h3116c46 0 84 38 84 85v4064c0 47-38 85-84 85h-3116c-46 0-84-38-84-85v-4064c0-47 38-85 84-85zm406 3556c-46 0-84-37-84-84s38-85 84-85h2303c47 0 85 38 85 85s-38 84-85 84h-2303zm0-677c-46 0-84-38-84-85 0-46 38-84 84-84h2303c47 0 85 38 85 84 0 47-38 85-85 85h-2303zm1363-2198 805-1c46 0 84 38 84 85h1v677c0 47-38 85-85 85-3 0-6 0-8-1l-805-5c-47 0-84-38-84-84h-1v-672c0-47 38-85 85-85 3 0 5 0 8 1zm720 168h-643v504l643 4v-508zm-2082-3c-47 0-85-38-85-84 0-47 38-84 85-84l948-1c46 0 84 38 84 85 0 46-38 84-84 84h-948zm-1 1355c-46 0-84-37-84-84s38-84 84-84l2303-1c47 0 85 38 85 85 0 46-38 84-85 84h-2303zm1-677c-47 0-85-38-85-85 0-46 38-84 85-84l950-1c46 0 84 38 84 84 0 47-38 85-84 85l-950 1zm2624-1354h-2946v3894h2946v-3894z"/> </svg>